HIERARCHY
ROOT RootJoint
{
    OFFSET   0.000000   0.000000   0.000000
    CHANNELS 6 Xposition Yposition Zposition Xrotation Yrotation Zrotation
    JOINT pelvis_lowerback
    {
        OFFSET   0.000000   0.093605   0.000000
        CHANNELS 3 Xrotation Yrotation Zrotation
        JOINT lowerback_torso
        {
            OFFSET   0.000000   0.100000   0.000000
            CHANNELS 3 Xrotation Yrotation Zrotation
            JOINT torso_head
            {
                OFFSET   0.000000   0.282350   0.000000
                CHANNELS 3 Xrotation Yrotation Zrotation
                End Site
                {
                    OFFSET   0.000000   0.192650   0.000000
                }
            }
            JOINT rTorso_Clavicle
            {
                OFFSET  -0.001000   0.157500   0.000000
                CHANNELS 3 Xrotation Yrotation Zrotation
                JOINT rShoulder
                {
                    OFFSET  -0.117647   0.000000   0.000000
                    CHANNELS 3 Xrotation Yrotation Zrotation
                    JOINT rElbow
                    {
                        OFFSET  -0.245000   0.000000   0.000000
                        CHANNELS 3 Xrotation Yrotation Zrotation
                        JOINT rWrist
                        {
                            OFFSET  -0.240000   0.000000   0.000000
                            CHANNELS 3 Xrotation Yrotation Zrotation
                            End Site
                            {
                                OFFSET  -0.116353  -0.002500   0.000000
                            }
                        }
                    }
                }
            }
            JOINT lTorso_Clavicle
            {
                OFFSET   0.001000   0.157500   0.000000
                CHANNELS 3 Xrotation Yrotation Zrotation
                JOINT lShoulder
                {
                    OFFSET   0.117647   0.000000   0.000000
                    CHANNELS 3 Xrotation Yrotation Zrotation
                    JOINT lElbow
                    {
                        OFFSET   0.245000   0.000000   0.000000
                        CHANNELS 3 Xrotation Yrotation Zrotation
                        JOINT lWrist
                        {
                            OFFSET   0.240000   0.000000   0.000000
                            CHANNELS 3 Xrotation Yrotation Zrotation
                            End Site
                            {
                                OFFSET   0.116353  -0.002500   0.000000
                            }
                        }
                    }
                }
            }
        }
    }
    JOINT rHip
    {
        OFFSET  -0.100000  -0.051395   0.000000
        CHANNELS 3 Xrotation Yrotation Zrotation
        JOINT rKnee
        {
            OFFSET   0.000000  -0.410000   0.000000
            CHANNELS 3 Xrotation Yrotation Zrotation
            JOINT rAnkle
            {
                OFFSET   0.000000  -0.390000   0.000000
                CHANNELS 3 Xrotation Yrotation Zrotation
                JOINT rToeJoint
                {
                    OFFSET   0.000000  -0.050000   0.130000
                    CHANNELS 3 Xrotation Yrotation Zrotation
                    End Site
                    {
                        OFFSET  -0.010000   0.002000   0.060000
                    }
                }
            }
        }
    }
    JOINT lHip
    {
        OFFSET   0.100000  -0.051395   0.000000
        CHANNELS 3 Xrotation Yrotation Zrotation
        JOINT lKnee
        {
            OFFSET   0.000000  -0.410000   0.000000
            CHANNELS 3 Xrotation Yrotation Zrotation
            JOINT lAnkle
            {
                OFFSET   0.000000  -0.390000   0.000000
                CHANNELS 3 Xrotation Yrotation Zrotation
                JOINT lToeJoint
                {
                    OFFSET   0.000000  -0.050000   0.130000
                    CHANNELS 3 Xrotation Yrotation Zrotation
                    End Site
                    {
                        OFFSET   0.010000   0.002000   0.060000
                    }
                }
            }
        }
    }
}
MOTION
Frames: 17
Frame Time:   0.008333
 -2.302409   1.242748   4.226736  -3.838351  -3.498675  -0.019106   4.788593   2.899507  -0.191329   4.507964  -5.145112   0.077773   5.375706  -3.521522  -5.537045   1.522268   9.363602 -12.579051 -12.378711   8.756805  11.589348  -0.002903  66.236709   0.001494  -1.956405  -1.513991   2.046436   3.700253 -11.257879   8.044680  -2.065199 -12.148923 -14.006444   0.027730 -73.575383   0.024776  -5.454599  -5.786668  -3.416702 -23.026205  -5.820360  -6.453202  39.232606   0.003320   0.004530  24.530017  -2.458498   6.373208   2.588116  -0.002767  -0.002740 -29.522689   4.115015   4.232521  44.971346   0.000642  -0.000372  27.621350  -0.743137  -9.761979  -2.576313   0.004607   0.002272
 -2.301252   1.240120   4.230162  -3.861882  -3.702008   0.206107   4.700698   2.815961  -0.402949   4.512776  -5.058556   0.119228   5.650108  -3.466414  -5.454508   1.754156   8.973058 -12.919103 -12.656167   8.623690  10.863833  -0.005066  66.470235   0.001831  -2.094554  -1.437507   2.760954   3.860603 -11.135732   8.485031  -2.423449 -12.310782 -13.768579   0.019804 -73.826676   0.019201  -5.419972  -5.900377  -4.172949 -23.861067  -5.716918  -6.706826  39.133524   0.002775   0.003827  24.197978  -2.412664   5.906018   2.296251  -0.002699  -0.002233 -29.849145   4.339392   4.312853  44.905669   0.000590  -0.000343  28.287591  -1.092979  -9.506444  -3.104585   0.005155   0.002734
 -2.300033   1.236573   4.233879  -3.876771  -3.905454   0.417242   4.577802   2.718872  -0.570177   4.451144  -4.983867   0.175331   5.959923  -3.417289  -5.363157   1.868465   8.575994 -13.439788 -12.982170   8.501529  10.029358  -0.008372  66.700296   0.003153  -2.224340  -1.283622   3.247246   3.926039 -10.984026   9.063119  -2.809190 -12.429973 -13.424101   0.011718 -74.059755   0.013579  -5.381706  -6.028821  -4.722407 -24.678464  -5.615425  -6.932439  39.077738   0.002291   0.003171  23.887907  -2.368747   5.469842   2.011848  -0.002565  -0.001793 -30.092151   4.551008   4.379310  44.845086   0.000539  -0.000303  28.913447  -1.417740  -9.263892  -3.572300   0.005370   0.002975
 -2.298800   1.232240   4.237974  -3.878611  -4.100941   0.620761   4.394641   2.616516  -0.710451   4.309898  -4.924006   0.234480   6.264938  -3.372770  -5.270811   1.913354   8.190174 -14.035048 -13.327050   8.389649   9.164984  -0.011800  66.914695   0.004972  -2.346627  -1.119728   3.507310   3.935596 -10.829952   9.696756  -3.200286 -12.526846 -13.032647   0.004169 -74.272031   0.008132  -5.338886  -6.139409  -5.080865 -25.452642  -5.518883  -7.134134  39.022601   0.001903   0.002640  23.598970  -2.326070   5.062947   1.751366  -0.002376  -0.001430 -30.258004   4.754499   4.430410  44.794153   0.000484  -0.000261  29.499358  -1.718311  -9.034057  -3.996939   0.005362   0.003032
 -2.297580   1.227192   4.242450  -3.872486  -4.285262   0.818062   4.150853   2.511782  -0.832420   4.098476  -4.877640   0.292547   6.551624  -3.331263  -5.180735   1.915983   7.822236 -14.654668 -13.674669   8.289242   8.307968  -0.014882  67.113802   0.006910  -2.462499  -0.962760   3.613345   3.910334 -10.684109  10.345562  -3.586520 -12.613111 -12.624799  -0.002516 -74.467054   0.003081  -5.293809  -6.233431  -5.303396 -26.174511  -5.428162  -7.313846  38.967452   0.001593   0.002209  23.329540  -2.284796   4.683334   1.512772  -0.002160  -0.001137 -30.353337   4.950367   4.467934  44.757810   0.000424  -0.000220  30.048073  -1.996580  -8.816517  -4.381878   0.005195   0.002948
 -2.296388   1.221471   4.247270  -3.863853  -4.457082   1.009060   3.854940   2.406175  -0.940671   3.831254  -4.843316   0.348136   6.816021  -3.292050  -5.094352   1.892088   7.474559 -15.273235 -14.016091   8.200491   7.476617  -0.017421  67.299276   0.008729  -2.572846  -0.812762   3.619637   3.862894 -10.550523  10.988756  -3.962169 -12.694645 -12.216645  -0.008213 -74.647945  -0.001422  -5.248376  -6.318975  -5.430941 -26.842196  -5.343715  -7.473040  38.915616   0.001341   0.001851  23.078449  -2.245024   4.329162   1.294875  -0.001936  -0.000904 -30.387160   5.138384   4.494109  44.737390   0.000359  -0.000182  30.562088  -2.254294  -8.610838  -4.730101   0.004921   0.002767
 -2.295229   1.215104   4.252384  -3.857004  -4.616252   1.193527   3.518082   2.300721  -1.038021   3.522395  -4.819595   0.400833   7.057909  -3.254811  -5.012289   1.851133   7.147349 -15.877287 -14.346409   8.122611   6.679883  -0.019354  67.472563   0.010297  -2.678311  -0.667220   3.560844   3.801274 -10.430028  11.615252  -4.323982 -12.774058 -11.816931  -0.012899 -74.816871  -0.005299  -5.203823  -6.402316  -5.490934 -27.457411  -5.265609  -7.613307  38.869058   0.001133   0.001550  22.844573  -2.206804   3.998725   1.096395  -0.001713  -0.000722 -30.369580   5.318334   4.510803  44.731883   0.000292  -0.000147  31.043611  -2.493066  -8.416582  -5.044789   0.004579   0.002531
 -2.293999   1.207567   4.257535  -4.128414  -4.835877   1.345991   3.505502   2.221584  -1.109330   3.370710  -4.697219   0.499962   7.350989  -3.186609  -4.924639   1.792416   6.627313 -17.102695 -15.220028   7.841264   5.887521  -0.032460  67.873810   0.018474  -2.853270  -0.606969   4.070428   3.679901 -10.151856  12.664820  -5.370689 -12.995654 -11.362636  -0.019293 -74.979143  -0.010334  -5.231617  -6.395148  -6.089753 -27.882907  -5.149789  -7.687253  39.107732   0.000519   0.000896  21.862454  -2.272787   3.669675   1.042993  -0.001389  -0.000551 -30.007701   5.365715   4.479151  44.962700  -0.000123  -0.000420  31.368481  -2.637127  -8.094407  -5.307241   0.004825   0.002359
 -2.292777   1.199190   4.262946  -4.383565  -5.075103   1.497231   3.459627   2.139793  -1.166966   3.180160  -4.591124   0.594541   7.689643  -3.121701  -4.834464   1.620034   6.117858 -18.472014 -16.110144   7.589927   4.980188  -0.044284  68.253114   0.025784  -3.021789  -0.502171   4.320112   3.448197  -9.886322  13.840975  -6.423143 -13.194971 -10.795904  -0.024833 -75.129135  -0.014604  -5.252798  -6.398688  -6.385725 -28.317675  -5.043870  -7.714399  39.350559  -0.000071   0.000373  20.939870  -2.330011   3.361230   0.952236  -0.001095  -0.000406 -29.565307   5.402881   4.416353  45.234204  -0.000525  -0.000796  31.676025  -2.768566  -7.791423  -5.535688   0.004866   0.002205
 -2.291605   1.190125   4.268707  -4.600659  -5.313280   1.648946   3.346369   2.046625  -1.219066   2.917280  -4.509781   0.678318   8.024068  -3.061869  -4.746165   1.388083   5.641647 -19.872339 -16.986365   7.374129   4.041179  -0.053775  68.604966   0.031889  -3.179259  -0.398805   4.340325   3.165333  -9.649185  15.046998  -7.445746 -13.386176 -10.190219  -0.029012 -75.264062  -0.017944  -5.264395  -6.385476  -6.456280 -28.749227  -4.951831  -7.702860  39.564791  -0.000543   0.000024  20.078152  -2.378628   3.072778   0.867776  -0.000833  -0.000306 -29.064443   5.444652   4.327879  45.510895  -0.000833  -0.001129  31.965408  -2.889812  -7.507756  -5.735728   0.004727   0.002034
 -2.290500   1.180448   4.274817  -4.784392  -5.540878   1.799298   3.165509   1.941684  -1.268542   2.590319  -4.453232   0.751205   8.338292  -3.006012  -4.661600   1.125232   5.200804 -21.251794 -17.833108   7.190973   3.110549  -0.060808  68.932501   0.036675  -3.327992  -0.300713   4.211344   2.860182  -9.445660  16.236640  -8.425579 -13.578891  -9.582019  -0.032067 -75.388587  -0.020538  -5.270940  -6.364841  -6.384567 -29.164572  -4.873011  -7.658754  39.754495  -0.000897  -0.000186  19.273345  -2.419910   2.803092   0.790077  -0.000609  -0.000241 -28.515794   5.491421   4.219537  45.788386  -0.001053  -0.001390  32.237278  -3.001743  -7.242325  -5.911696   0.004464   0.001847
 -2.289467   1.170198   4.281233  -4.942233  -5.754293   1.946833   2.927155   1.826281  -1.316600   2.214927  -4.419698   0.814390   8.628247  -2.953442  -4.581657   0.847522   4.792743 -22.584811 -18.642364   7.035929   2.208012  -0.065524  69.238524   0.040127  -3.469748  -0.203489   3.991154   2.548897  -9.274596  17.387336  -9.356791 -13.776239  -8.989514  -0.034243 -75.506304  -0.022537  -5.276210  -6.351314  -6.224437 -29.557664  -4.806087  -7.587974  39.926348  -0.001155  -0.000301  18.521956  -2.454930   2.551017   0.719419  -0.000424  -0.000201 -27.930871   5.541794   4.096362  46.066090  -0.001201  -0.001578  32.492659  -3.105153  -6.994018  -6.066197   0.004124   0.001651
 -2.288502   1.159395   4.287896  -5.080889  -5.953152   2.090779   2.644265   1.702271  -1.363724   1.806433  -4.406567   0.869252   8.894110  -2.903823  -4.506713   0.564172   4.413713 -23.858575 -19.410453   6.904163   1.343313  -0.068173  69.525020   0.042306  -3.605487  -0.104175   3.716664   2.240820  -9.132029  18.487988 -10.237063 -13.977773  -8.421822  -0.035703 -75.619166  -0.024029  -5.282337  -6.353860  -6.009808 -29.926816  -4.749576  -7.496079  40.084779  -0.001338  -0.000351  17.820633  -2.484582   2.315472   0.655737  -0.000274  -0.000177 -27.321543   5.594297   3.962481  46.342934  -0.001293  -0.001701  32.732517  -3.200777  -6.761784  -6.201667   0.003745   0.001456
 -2.287825   1.147974   4.294914  -5.475506  -6.197890   2.115158   2.583045   1.656215  -1.302133   1.520913  -4.386042   0.859461   9.180902  -2.944565  -4.375295   0.132178   3.980092 -25.404203 -20.307459   6.593657   0.769076  -0.096533  70.229218   0.061996  -3.670249  -0.222597   3.653951   1.909934  -8.906254  19.873008 -11.526610 -14.290054  -7.969858  -0.048472 -75.855809  -0.033956  -5.269004  -6.226644  -6.094798 -29.927763  -4.513397  -7.231799  40.281394  -0.001439  -0.000074  16.465827  -2.438054   2.248505   0.865001  -0.000524   0.000382 -26.253572   5.513561   3.955745  46.275578  -0.000871  -0.001222  32.939238  -3.124992  -6.517403  -5.846371   0.001244   0.001319
 -2.287303   1.135916   4.302141  -5.836666  -6.416824   2.116637   2.467686   1.593480  -1.240296   1.209545  -4.391881   0.850578   9.481856  -2.985393  -4.252958  -0.324131   3.582706 -26.949511 -21.175976   6.329982   0.166023  -0.119970  70.912434   0.078426  -3.744309  -0.195002   3.506486   1.528395  -8.727117  21.293005 -12.780616 -14.613297  -7.470518  -0.059692 -76.092103  -0.042718  -5.263475  -6.189080  -6.007093 -29.922205  -4.285376  -6.949680  40.478755  -0.001489   0.000197  15.194821  -2.391548   2.187051   1.015768  -0.000605   0.000700 -25.175042   5.405684   3.998969  46.153873  -0.000374  -0.000762  33.129128  -3.049172  -6.287214  -5.515149  -0.000635   0.001334
 -2.286877   1.123273   4.309554  -6.158400  -6.612908   2.116741   2.301921   1.514574  -1.189041   0.857920  -4.419265   0.837779   9.768040  -3.023440  -4.140134  -0.783259   3.228681 -28.453296 -22.007926   6.105990  -0.439140  -0.137402  71.555935   0.091038  -3.818115  -0.114615   3.272753   1.132020  -8.592723  22.689298 -13.979655 -14.942089  -6.963805  -0.068179 -76.317021  -0.049517  -5.259531  -6.191937  -5.784203 -29.919796  -4.072872  -6.680451  40.664900  -0.001482   0.000403  14.008809  -2.346924   2.130871   1.154282  -0.000639   0.000908 -24.117952   5.298498   4.066485  46.032294   0.000031  -0.000430  33.305491  -2.976862  -6.072012  -5.210554  -0.001942   0.001426
 -2.286517   1.110076   4.317116  -6.448346  -6.793007   2.120914   2.095474   1.424781  -1.147884   0.477080  -4.462181   0.819490  10.033631  -3.058504  -4.035880  -1.235506   2.912076 -29.895447 -22.798958   5.913480  -1.030774  -0.149223  72.159907   0.100013  -3.889734  -0.011879   2.981293   0.738879  -8.493929  24.033851 -15.115860 -15.272718  -6.470786  -0.074110 -76.531123  -0.054464  -5.257277  -6.222293  -5.480420 -29.917202  -3.874030  -6.431004  40.838612  -0.001436   0.000542  12.902138  -2.304392   2.079490   1.282668  -0.000643   0.001028 -23.088285   5.197689   4.147928  45.924299   0.000321  -0.000211  33.470089  -2.908397  -5.871059  -4.928726  -0.002818   0.001538
